<?xml version="1.0" encoding="UTF-8"?>
<svg id="a" data-name="Layer 1" xmlns="http://www.w3.org/2000/svg" xmlns:xlink="http://www.w3.org/1999/xlink" viewBox="0 0 869.53 92.22">
  <defs>
    <style>
      .d {
        fill: url(#c);
      }
    </style>
    <linearGradient id="c" data-name="SmartR Gradient new" x1="0" y1="45.78" x2="104.23" y2="45.78" gradientUnits="userSpaceOnUse">
      <stop offset=".25" stop-color="#ff6143"/>
      <stop offset="1" stop-color="#ffd100"/>
    </linearGradient>
  </defs>
  <g id="b" data-name="SmartR Logo">
    <g>
      <g>
        <path class="d" d="M66.28,42.92c2.52.93,2.52,4.5,0,5.43l-5.83,2.16c-4.47,1.65-7.99,5.18-9.64,9.64l-2.16,5.83c-.93,2.52-4.5,2.52-5.43,0l-2.16-5.83c-1.65-4.47-5.18-7.99-9.64-9.64l-5.83-2.16c-2.52-.93-2.52-4.5,0-5.43l5.83-2.16c4.47-1.65,7.99-5.18,9.64-9.64l2.16-5.83c.93-2.52,4.5-2.52,5.43,0l2.16,5.83c1.65,4.47,5.18,7.99,9.64,9.64l5.83,2.16ZM102.85,31.85l-4.25-1.57c-3.25-1.2-5.82-3.77-7.02-7.02l-1.57-4.25c-.68-1.84-3.28-1.84-3.96,0l-1.57,4.25c-1.2,3.25-3.77,5.82-7.02,7.02l-4.25,1.57c-1.84.68-1.84,3.28,0,3.96l4.25,1.57c2.67.99,4.87,2.89,6.24,5.33.52.93.79,1.99.79,3.07,0,0,0,0,0,.01,0,21.85-18.2,39.54-40.24,38.68-20.09-.78-36.37-17.06-37.15-37.15C6.25,25.27,23.93,7.07,45.78,7.07c5.6,0,11,1.17,16.06,3.48,3.85,1.76,7.37,4.12,10.46,7.03,1.42,1.34,3.66,1.27,5-.15,1.34-1.42,1.27-3.66-.15-5-3.66-3.44-7.82-6.24-12.37-8.31C58.8,1.38,52.41,0,45.78,0,19.94,0-.97,21.53.04,47.59c.92,23.76,20.18,43.02,43.94,43.94,26.07,1.01,47.59-19.9,47.59-45.75,0,0,0,0,0-.01,0-1.07.27-2.13.79-3.06,1.37-2.45,3.58-4.35,6.24-5.34l4.25-1.57c1.84-.68,1.84-3.28,0-3.96Z"/>
        <path d="M122.74,57.49h9.16c0,6.77,4.87,10.56,12.54,10.56,8.25,0,12.13-3.8,12.13-8.66,0-13.53-32.35-6.77-32.35-27.98,0-8.67,8.17-16.92,20.22-16.92s19.81,8.25,19.81,18.82h-9.16c0-6.27-4.29-10.56-10.65-10.56-6.68,0-11.06,4.29-11.06,8.67,0,12.54,32.35,5.78,32.35,27.98,0,8.66-8.25,16.92-21.29,16.92s-21.7-7.76-21.7-18.82Z"/>
        <path d="M174.4,32.4h8.25v4.29s3.8-4.79,10.56-4.79c8.25,0,12.13,6.77,12.13,6.77,0,0,4.29-6.77,13.04-6.77,8.17,0,14.94,6.77,14.94,17.83v26.08h-8.67v-26.08c0-5.78-3.88-9.66-8.25-9.66s-8.17,3.88-8.17,9.66v26.08h-8.75v-26.08c0-5.78-3.8-9.66-8.17-9.66s-8.25,3.88-8.25,9.66v26.08h-8.67v-43.41Z"/>
        <path d="M240.97,63.26c0-8.67,5.78-14.52,26.99-14.52v-1.4c0-4.37-2.89-7.26-8.17-7.26-5.78,0-8.25,2.39-8.67,5.28h-8.75c.5-7.68,6.77-13.45,17.41-13.45s16.92,6.77,16.92,15.43v28.47h-8.25v-4.37s-3.88,4.87-12.54,4.87c-9.66,0-14.94-5.28-14.94-13.04ZM267.96,58.81v-2.31c-15.43,0-18.32,2.89-18.32,7.26,0,2.39,2.39,4.79,6.77,4.79,7.26,0,11.55-4.29,11.55-9.74Z"/>
        <path d="M285.51,32.4h8.25v4.29s3.8-4.79,11.06-4.79c2.39,0,3.38.5,3.38.5v8.67s-1.4-.5-3.38-.5c-5.78,0-10.65,4.79-10.65,10.65v24.59h-8.67v-43.41Z"/>
        <path d="M322.47,61.37v-20.8h-7.76v-8.17h3.38c3.38,0,5.86-2.48,5.86-5.86v-5.78h7.18v11.64h9.66v8.17h-9.66v20.8c0,3.8,2.89,6.68,6.77,6.68,1.49,0,2.89-.41,2.89-.41v7.67s-1.9.99-4.79.99c-7.76,0-13.53-5.78-13.53-14.94Z"/>
        <path d="M349.79,14.99h24.1c10.15,0,18.4,8.17,18.4,18.32,0,14.03-13.53,17.41-13.53,17.41l14.94,25.09h-10.15l-13.95-24.1h-10.65v24.1h-9.16V14.99ZM373.89,42.96c4.87,0,9.16-4.29,9.16-9.66s-4.29-9.66-9.16-9.66h-14.94v19.31h14.94Z"/>
      </g>
      <g>
        <path d="M431.23,15.01h21.7c10.64,0,18.81,8.17,18.81,17.82,0,13.53-14.02,16.91-14.02,16.91l15.01,26.07h-7.26l-14.52-25.57h-13.45v25.57h-6.27V15.01ZM452.93,44.46c7.26,0,12.54-5.36,12.54-11.63,0-6.76-5.28-12.04-12.54-12.04h-15.43v23.68h15.43Z"/>
        <path d="M480.48,19.79c0-2.39,1.98-4.29,4.37-4.29s4.37,1.9,4.37,4.29-1.98,4.37-4.37,4.37-4.37-1.9-4.37-4.37ZM481.97,32.42h5.77v43.39h-5.77v-43.39Z"/>
        <path d="M496.57,62.77h5.77c.49,4.37,3.88,7.75,10.15,7.75,5.77,0,9.16-3.38,9.16-6.76,0-10.64-23.68-3.38-23.68-19.3,0-6.76,5.86-12.54,14.52-12.54s14.02,5.77,14.44,13.03h-5.77c-.91-4.37-3.38-7.26-8.66-7.26s-8.66,3.38-8.66,6.76c0,10.56,23.59,2.89,23.59,19.3,0,6.76-5.77,12.54-14.93,12.54-9.65,0-15.43-6.27-15.92-13.53Z"/>
        <path d="M537.24,15.01h5.77v38.61l18.31-21.2h6.76l-18.31,20.71,20.29,22.69h-7.26l-19.8-22.19v22.19h-5.77V15.01Z"/>
        <path d="M596.47,15.01h6.27v60.8h-6.27V15.01Z"/>
        <path d="M615.86,32.42h5.77v5.77h.49s4.87-6.27,12.54-6.27c9.65,0,17.41,7.67,17.41,18.81v25.08h-5.77v-25.08c0-7.75-5.36-13.03-12.13-13.03-7.18,0-12.54,5.28-12.54,13.03v25.08h-5.77v-43.39Z"/>
        <path d="M660.4,62.77h5.77c.49,4.37,3.88,7.75,10.15,7.75,5.77,0,9.16-3.38,9.16-6.76,0-10.64-23.68-3.38-23.68-19.3,0-6.76,5.86-12.54,14.52-12.54s14.02,5.77,14.44,13.03h-5.77c-.91-4.37-3.38-7.26-8.66-7.26s-8.66,3.38-8.66,6.76c0,10.56,23.59,2.89,23.59,19.3,0,6.76-5.77,12.54-14.93,12.54-9.65,0-15.43-6.27-15.92-13.53Z"/>
        <path d="M699.09,19.79c0-2.39,1.98-4.29,4.37-4.29s4.37,1.9,4.37,4.29-1.98,4.37-4.37,4.37-4.37-1.9-4.37-4.37ZM700.58,32.42h5.77v43.39h-5.77v-43.39Z"/>
        <path d="M717.08,79.19h5.86c1.4,3.38,5.28,7.26,12.04,7.26,7.67,0,13.03-5.36,13.03-12.13v-6.27h-.5s-4.37,6.27-13.03,6.27c-10.64,0-19.3-8.66-19.3-21.2s8.66-21.2,19.3-21.2c8.66,0,13.03,6.27,13.03,6.27h.5v-5.77h5.77v41.91c0,10.15-7.75,17.9-18.81,17.9-10.15,0-15.92-5.77-17.9-13.03ZM748.01,53.12c0-9.16-6.27-15.43-13.53-15.43s-13.53,6.27-13.53,15.43,6.27,15.43,13.53,15.43,13.53-6.27,13.53-15.43Z"/>
        <path d="M766,15.01h5.77v23.68s4.37-6.76,13.03-6.76c9.65,0,17.41,7.67,17.41,18.81v25.08h-5.86v-25.08c0-7.75-5.28-13.03-12.04-13.03-7.26,0-12.54,5.28-12.54,13.03v25.08h-5.77V15.01Z"/>
        <path d="M816.81,62.77v-24.58h-7.75v-5.77h3.38c3.38,0,5.36-1.98,5.36-5.36v-6.27h4.78v11.63h10.15v5.77h-10.15v24.58c0,4.87,2.89,7.75,7.75,7.75,1.4,0,2.39-.49,2.39-.49v5.28s-1.49.99-3.88.99c-6.76,0-12.04-5.28-12.04-13.53Z"/>
        <path d="M838.68,62.77h5.77c.49,4.37,3.88,7.75,10.15,7.75,5.77,0,9.16-3.38,9.16-6.76,0-10.64-23.68-3.38-23.68-19.3,0-6.76,5.86-12.54,14.52-12.54s14.02,5.77,14.44,13.03h-5.77c-.91-4.37-3.38-7.26-8.66-7.26s-8.66,3.38-8.66,6.76c0,10.56,23.59,2.89,23.59,19.3,0,6.76-5.77,12.54-14.93,12.54-9.65,0-15.43-6.27-15.92-13.53Z"/>
      </g>
    </g>
  </g>
</svg>